<svg width="299" height="100" viewBox="0 0 299 100" fill="none" xmlns="http://www.w3.org/2000/svg">
<g clip-path="url(#clip0_1011_52)">
<path d="M12.9943 14.985L14.4926 19.4869H19.3412L15.4186 22.2692L16.9169 26.7712L12.9943 23.9888L9.07175 26.7712L10.57 22.2692L6.64746 19.4869H11.496L12.9943 14.985Z" fill="#FAFF00"/>
<path d="M42.3577 0L43.856 4.50191H48.7045L44.782 7.28423L46.2803 11.7862L42.3577 9.00379L38.4351 11.7862L39.9334 7.28423L36.0109 4.50191H40.8594L42.3577 0Z" fill="#FAFF00"/>
<path d="M59.0412 3.58337L60.5395 8.08528H65.3884L61.4659 10.8676L62.9637 15.3695L59.0412 12.5872L55.1187 15.3695L56.617 10.8676L52.6945 8.08528H57.5428L59.0412 3.58337Z" fill="#FAFF00"/>
<path d="M71.3874 16.2881L72.8857 20.79H77.7341L73.8115 23.5723L75.3099 28.0742L71.3874 25.2919L67.4648 28.0742L68.9632 23.5723L65.0406 20.79H69.889L71.3874 16.2881Z" fill="#FAFF00"/>
<path d="M76.3922 31.9246L77.8906 36.4265H82.7395L78.8164 39.2089L80.3148 43.7108L76.3922 40.9284L72.4697 43.7108L73.9681 39.2089L70.0455 36.4265H74.8939L76.3922 31.9246Z" fill="#FAFF00"/>
<path d="M74.0565 48.2126L75.5549 52.7146H80.4038L76.4807 55.4967L77.9791 59.9989L74.0565 57.2165L70.134 59.9989L71.6324 55.4967L67.7098 52.7146H72.5582L74.0565 48.2126Z" fill="#FAFF00"/>
<path d="M65.0473 61.5687L66.5456 66.0709H71.3945L67.472 68.8533L68.9703 73.3549L65.0473 70.5725L61.1247 73.3549L62.6231 68.8533L58.7006 66.0709H63.5495L65.0473 61.5687Z" fill="#FAFF00"/>
<path d="M50.3659 69.3874L51.8642 73.889H56.7127L52.7902 76.6715L54.2885 81.1731L50.3659 78.3907L46.4433 81.1731L47.9416 76.6715L44.019 73.889H48.8676L50.3659 69.3874Z" fill="#FAFF00"/>
<path d="M32.6811 68.4099L34.1794 72.9115H39.028L35.1054 75.6939L36.6037 80.1961L32.6811 77.4137L28.7585 80.1961L30.2568 75.6939L26.3342 72.9115H31.1828L32.6811 68.4099Z" fill="#FAFF00"/>
<path d="M17.9995 59.9401L19.4978 64.4418H24.3463L20.4237 67.2242L21.922 71.7264L17.9995 68.944L14.0769 71.7264L15.5752 67.2242L11.6526 64.4418H16.5012L17.9995 59.9401Z" fill="#FAFF00"/>
<path d="M8.99018 46.2581L10.4885 50.76H15.3371L11.4145 53.5423L12.9128 58.044L8.99018 55.2621L5.0676 58.044L6.5659 53.5423L2.64331 50.76H7.49189L8.99018 46.2581Z" fill="#FAFF00"/>
<path d="M7.32181 29.97L8.82011 34.4719H13.6687L9.74615 37.2543L11.2444 41.7562L7.32181 38.9738L3.39926 41.7562L4.89755 37.2543L0.974976 34.4719H5.82355L7.32181 29.97Z" fill="#FAFF00"/>
<path d="M25.0065 3.58337L26.5048 8.08528H31.3534L27.4308 10.8676L28.9291 15.3695L25.0065 12.5872L21.084 15.3695L22.5822 10.8676L18.6597 8.08528H23.5082L25.0065 3.58337Z" fill="#FAFF00"/>
<g filter="url(#filter0_i_1011_52)">
<path d="M107.598 31.5891C106.302 31.5891 105.108 31.353 104.018 30.8808C102.936 30.4001 101.996 29.7304 101.198 28.8719C100.399 28.0134 99.7813 27.0089 99.3434 25.8585C98.9143 24.6995 98.6995 23.4418 98.6995 22.0853V21.7891C98.6995 20.4413 98.9143 19.1921 99.3434 18.0417C99.7813 16.8913 100.395 15.8869 101.185 15.0284C101.984 14.1698 102.924 13.5002 104.005 13.0194C105.087 12.5386 106.276 12.2982 107.573 12.2982C108.843 12.2982 110.023 12.5386 111.114 13.0194C112.204 13.5002 113.157 14.1698 113.973 15.0284C114.797 15.8869 115.436 16.8913 115.891 18.0417C116.346 19.1921 116.574 20.4413 116.574 21.7891V22.0853C116.574 23.4418 116.346 24.6995 115.891 25.8585C115.436 27.0089 114.801 28.0134 113.985 28.8719C113.17 29.7304 112.217 30.4001 111.126 30.8808C110.036 31.353 108.86 31.5891 107.598 31.5891ZM107.598 28.1636C109.015 28.1636 110.114 27.6099 110.895 26.5024C111.685 25.3863 112.08 23.914 112.08 22.0853V21.7634C112.08 19.9691 111.685 18.5182 110.895 17.4107C110.105 16.2946 108.997 15.7366 107.573 15.7366C106.07 15.7366 104.967 16.2861 104.263 17.385C103.567 18.4839 103.22 19.9434 103.22 21.7634V22.0853C103.22 23.9226 103.576 25.395 104.288 26.5024C105.001 27.6099 106.104 28.1636 107.598 28.1636ZM117.81 31.3187V28.6787L119.754 28.2667V15.6336L117.81 15.2215V12.5687H126.927C128.421 12.5687 129.718 12.8306 130.817 13.3542C131.915 13.8779 132.761 14.6076 133.353 15.5435C133.954 16.4707 134.255 17.5524 134.255 18.7886C134.255 20.0249 133.954 21.1067 133.353 22.0339C132.761 22.9611 131.915 23.6822 130.817 24.1973C129.718 24.7124 128.421 24.97 126.927 24.97H124.275V28.2667L126.219 28.6787V31.3187H117.81ZM124.275 21.5058H126.927C127.846 21.5058 128.542 21.2569 129.014 20.7589C129.495 20.2524 129.735 19.6042 129.735 18.8144C129.735 17.9988 129.495 17.3292 129.014 16.8054C128.542 16.2818 127.846 16.0199 126.927 16.0199H124.275V21.5058ZM144.068 31.5891C142.771 31.5891 141.578 31.353 140.488 30.8808C139.406 30.4001 138.466 29.7304 137.668 28.8719C136.869 28.0134 136.251 27.0089 135.813 25.8585C135.384 24.6995 135.169 23.4418 135.169 22.0853V21.7891C135.169 20.4413 135.384 19.1921 135.813 18.0417C136.251 16.8913 136.865 15.8869 137.655 15.0284C138.453 14.1698 139.393 13.5002 140.475 13.0194C141.557 12.5386 142.746 12.2982 144.042 12.2982C145.313 12.2982 146.493 12.5386 147.584 13.0194C148.674 13.5002 149.627 14.1698 150.442 15.0284C151.267 15.8869 151.906 16.8913 152.361 18.0417C152.816 19.1921 153.043 20.4413 153.043 21.7891V22.0853C153.043 23.4418 152.816 24.6995 152.361 25.8585C151.906 27.0089 151.271 28.0134 150.455 28.8719C149.64 29.7304 148.687 30.4001 147.596 30.8808C146.506 31.353 145.33 31.5891 144.068 31.5891ZM144.068 28.1636C145.485 28.1636 146.584 27.6099 147.364 26.5024C148.154 25.3863 148.549 23.914 148.549 22.0853V21.7634C148.549 19.9691 148.154 18.5182 147.364 17.4107C146.575 16.2946 145.467 15.7366 144.042 15.7366C142.54 15.7366 141.436 16.2861 140.732 17.385C140.037 18.4839 139.69 19.9434 139.69 21.7634V22.0853C139.69 23.9226 140.046 25.395 140.758 26.5024C141.471 27.6099 142.574 28.1636 144.068 28.1636ZM154.28 31.3187V28.6787L156.224 28.2667V15.6336L154.28 15.2215V12.5558H163.501C164.986 12.5558 166.274 12.7919 167.364 13.2641C168.454 13.7363 169.296 14.4102 169.888 15.2859C170.48 16.153 170.776 17.1832 170.776 18.3765C170.776 19.3982 170.514 20.3554 169.991 21.2483C169.476 22.1412 168.771 22.8752 167.879 23.4504L169.836 28.2409L171.613 28.6917V31.3187H166.153L163.823 24.5579L160.745 24.5192V28.2667L162.689 28.6787V31.3187H154.28ZM160.745 21.0551H163.552C164.427 21.0551 165.102 20.8534 165.574 20.4499C166.046 20.0378 166.282 19.4454 166.282 18.6728C166.282 17.8743 166.042 17.2347 165.561 16.754C165.08 16.2646 164.393 16.0199 163.501 16.0199H160.745V21.0551ZM176.314 31.3187V28.6787L178.271 28.2667V16.0714H175.374L175.258 18.0932H171.845V12.5687H189.269V18.0932H185.818L185.714 16.0714H182.791V28.2667L184.748 28.6787V31.3187H176.314ZM199.597 31.5891C197.982 31.5891 196.575 31.3315 195.373 30.8164C194.18 30.2928 193.257 29.5287 192.604 28.5242C191.952 27.5197 191.625 26.2921 191.625 24.8412V15.6336L189.693 15.2215V12.5687H198.09V15.2215L196.146 15.6336V24.8412C196.146 25.9744 196.442 26.8158 197.034 27.3652C197.626 27.9061 198.472 28.1765 199.571 28.1765C201.872 28.1765 203.022 27.0647 203.022 24.8412V15.6336L201.091 15.2215V12.5687H209.487V15.2215L207.542 15.6336V24.8412C207.542 26.2663 207.208 27.4854 206.538 28.4985C205.868 29.5029 204.937 30.2713 203.743 30.8036C202.559 31.3273 201.176 31.5891 199.597 31.5891ZM210.234 31.3187V28.6787L212.165 28.2667V15.6336L210.234 15.2215V12.5687H216.763L224.284 24.5708H224.36V15.6336L221.901 15.2215V12.5687H230.31V15.2215L228.365 15.6336V31.3187H223.91L216.248 19.5742H216.17V28.2667L218.643 28.6787V31.3187H210.234ZM231.006 31.3187V28.6787L232.95 28.2667V15.6336L231.006 15.2215V12.5687H239.402V15.2215L237.457 15.6336V28.2667L239.402 28.6787V31.3187H231.006ZM240.432 31.3187V28.6787L242.402 28.2023V15.7109L240.432 15.2215V12.5687H249.215C250.906 12.5687 252.404 12.9636 253.709 13.7534C255.014 14.5347 256.036 15.6207 256.774 17.0115C257.512 18.3937 257.881 19.9906 257.881 21.802V22.0982C257.881 23.9097 257.512 25.5108 256.774 26.9016C256.036 28.2839 255.014 29.3656 253.709 30.1468C252.404 30.9281 250.906 31.3187 249.215 31.3187H240.432ZM246.923 27.8932H248.983C250.408 27.8932 251.49 27.3652 252.228 26.3092C252.967 25.2447 253.336 23.841 253.336 22.0982V21.7891C253.336 20.055 252.967 18.6598 252.228 17.6039C251.49 16.5393 250.408 16.007 248.983 16.007H246.923V27.8932ZM258.448 31.3187V28.6787L259.762 28.4856L265.351 12.5687H270.244L275.846 28.4856L277.159 28.6787V31.3187H270.154V28.6787L271.378 28.4469L270.81 26.4123H264.784L264.243 28.4469L265.467 28.6787V31.3187H258.448ZM265.737 23.2443H269.845L268.016 17.5653L267.81 16.9085H267.733L267.514 17.6296L265.737 23.2443ZM277.984 31.3187V28.6787L279.954 28.2023V15.7109L277.984 15.2215V12.5687H286.766C288.457 12.5687 289.956 12.9636 291.26 13.7534C292.565 14.5347 293.587 15.6207 294.325 17.0115C295.064 18.3937 295.433 19.9906 295.433 21.802V22.0982C295.433 23.9097 295.064 25.5108 294.325 26.9016C293.587 28.2839 292.565 29.3656 291.26 30.1468C289.956 30.9281 288.457 31.3187 286.766 31.3187H277.984ZM284.474 27.8932H286.534C287.959 27.8932 289.041 27.3652 289.78 26.3092C290.518 25.2447 290.887 23.841 290.887 22.0982V21.7891C290.887 20.055 290.518 18.6598 289.78 17.6039C289.041 16.5393 287.959 16.007 286.534 16.007H284.474V27.8932ZM98.4165 65.9341V63.294L100.361 62.8819V50.249L98.4165 49.8369V47.1841H113.393V52.5928H109.98L109.877 50.6611H104.881V54.5115H110.869V57.9758H104.881V62.444H110.122L110.225 60.4225H113.599V65.9341H98.4165ZM124.931 66.2044C123.318 66.2044 121.909 65.9467 120.708 65.4319C119.514 64.9083 118.591 64.144 117.939 63.1396C117.286 62.1352 116.96 60.9077 116.96 59.4566V50.249L115.029 49.8369V47.1841H123.425V49.8369L121.48 50.249V59.4566C121.48 60.5896 121.776 61.4313 122.369 61.9808C122.961 62.5214 123.807 62.7918 124.906 62.7918C127.207 62.7918 128.357 61.6802 128.357 59.4566V50.249L126.425 49.8369V47.1841H134.821V49.8369L132.877 50.249V59.4566C132.877 60.8819 132.542 62.1006 131.873 63.1137C131.203 64.1181 130.271 64.8868 129.078 65.4187C127.893 65.9429 126.511 66.2044 124.931 66.2044ZM135.581 65.9341V63.294L137.526 62.8819V50.249L135.581 49.8369V47.1712H144.802C146.287 47.1712 147.575 47.4073 148.665 47.8795C149.756 48.3517 150.597 49.0256 151.189 49.9013C151.781 50.7684 152.078 51.7986 152.078 52.9919C152.078 54.0136 151.816 54.9709 151.292 55.8637C150.777 56.7566 150.073 57.4907 149.18 58.0659L151.138 62.8561L152.915 63.3072V65.9341H147.455L145.124 59.1731L142.046 59.1346V62.8819L143.991 63.294V65.9341H135.581ZM142.046 55.6703H144.853C145.729 55.6703 146.403 55.4687 146.875 55.0654C147.347 54.6532 147.584 54.0608 147.584 53.2881C147.584 52.4897 147.343 51.8501 146.862 51.3694C146.381 50.88 145.695 50.6353 144.802 50.6353H142.046V55.6703ZM163.075 66.2044C161.779 66.2044 160.586 65.9681 159.496 65.4962C158.414 65.0154 157.474 64.3456 156.675 63.4874C155.877 62.6286 155.259 61.6242 154.821 60.4736C154.391 59.3148 154.177 58.0572 154.177 56.7006V56.4044C154.177 55.0566 154.391 53.8075 154.821 52.6571C155.259 51.5067 155.873 50.5023 156.662 49.6437C157.46 48.7852 158.401 48.1156 159.482 47.6348C160.564 47.154 161.753 46.9136 163.049 46.9136C164.32 46.9136 165.501 47.154 166.591 47.6348C167.681 48.1156 168.634 48.7852 169.45 49.6437C170.274 50.5023 170.914 51.5067 171.369 52.6571C171.824 53.8075 172.051 55.0566 172.051 56.4044V56.7006C172.051 58.0572 171.824 59.3148 171.369 60.4736C170.914 61.6242 170.279 62.6286 169.463 63.4874C168.647 64.3456 167.694 65.0154 166.604 65.4962C165.514 65.9681 164.337 66.2044 163.075 66.2044ZM163.075 62.7791C164.492 62.7791 165.591 62.2253 166.372 61.1176C167.162 60.0017 167.557 58.5291 167.557 56.7006V56.3786C167.557 54.5845 167.162 53.1336 166.372 52.0261C165.582 50.91 164.475 50.352 163.049 50.352C161.547 50.352 160.444 50.9014 159.74 52.0003C159.045 53.0992 158.697 54.5587 158.697 56.3786V56.7006C158.697 58.5379 159.053 60.0105 159.766 61.1176C160.479 62.2253 161.581 62.7791 163.075 62.7791ZM173.287 65.9341V63.294L175.232 62.8819V50.249L173.287 49.8369V47.1841H182.405C183.899 47.1841 185.195 47.4459 186.294 47.9696C187.393 48.4933 188.238 49.223 188.831 50.1589C189.432 51.0861 189.732 52.1678 189.732 53.404C189.732 54.6403 189.432 55.722 188.831 56.6495C188.238 57.5764 187.393 58.2978 186.294 58.8126C185.195 59.328 183.899 59.5852 182.405 59.5852H179.752V62.8819L181.697 63.294V65.9341H173.287ZM179.752 56.1214H182.405C183.324 56.1214 184.019 55.8725 184.491 55.3742C184.972 54.8678 185.212 54.2196 185.212 53.4298C185.212 52.6142 184.972 51.9446 184.491 51.4208C184.019 50.8972 183.324 50.6353 182.405 50.6353H179.752V56.1214ZM187.182 65.9341V63.294L188.496 63.1011L194.085 47.1841H198.979L204.58 63.1011L205.894 63.294V65.9341H198.888V63.294L200.112 63.0621L199.545 61.0275H193.518L192.977 63.0621L194.201 63.294V65.9341H187.182ZM194.471 57.8599H198.579L196.751 52.1807L196.545 51.5239H196.468L196.248 52.245L194.471 57.8599Z" fill="white"/>
</g>
<g filter="url(#filter1_i_1011_52)">
<path d="M100.225 95.055V93.7352L101.205 93.5292V87.4313H99.7556L99.6979 88.4423H97.9913V85.6802H106.703V88.4423H104.978L104.926 87.4313H103.464V93.5292L104.443 93.7352V95.055H100.225ZM109.736 95.1901C109.015 95.1901 108.448 94.9627 108.036 94.5077C107.624 94.0528 107.418 93.3489 107.418 92.3956V89.6204L106.671 89.4143V88.0879H109.678V92.4088C109.678 93.1083 109.966 93.4583 110.541 93.4583C110.708 93.4583 110.873 93.428 111.036 93.3682C111.204 93.3033 111.352 93.2094 111.481 93.0846V89.6204L110.721 89.4143V88.0879H113.741V93.5292L114.61 93.7352V95.055H111.777L111.629 94.2632C111.166 94.8813 110.534 95.1901 109.736 95.1901ZM121.745 95.1901C121.053 95.1901 120.459 95.0379 119.961 94.733C119.463 94.428 119.081 94.0099 118.814 93.4775C118.548 92.9451 118.416 92.3379 118.416 91.655V91.5072C118.416 90.8077 118.553 90.1912 118.828 89.6594C119.107 89.1269 119.493 88.7105 119.986 88.4099C120.485 88.1094 121.064 87.9594 121.725 87.9594C122.39 87.9594 122.959 88.0605 123.431 88.2621C123.908 88.4638 124.284 88.6742 124.558 88.8929L124.519 91.0885H122.839L122.569 89.8264C122.496 89.7539 122.397 89.6934 122.272 89.6462C122.152 89.5989 122.051 89.5753 121.97 89.5753C121.489 89.5753 121.152 89.7319 120.959 90.0456C120.77 90.3588 120.675 90.8462 120.675 91.5072V91.655C120.675 92.1143 120.729 92.4775 120.836 92.7434C120.948 93.0055 121.087 93.1918 121.255 93.3033C121.423 93.4154 121.594 93.4709 121.77 93.4709C122.041 93.4709 122.248 93.4044 122.395 93.2715C122.545 93.1341 122.661 92.9346 122.742 92.6726H124.635L124.661 92.711C124.558 93.2649 124.397 93.7264 124.178 94.0956C123.959 94.4605 123.655 94.7352 123.264 94.9198C122.878 95.1 122.371 95.1901 121.745 95.1901ZM127.726 95.1901C127.052 95.1901 126.503 94.9989 126.078 94.6171C125.653 94.2352 125.44 93.7264 125.44 93.0912C125.44 92.4385 125.702 91.9044 126.226 91.4879C126.754 91.0715 127.55 90.8632 128.614 90.8632H129.342V90.4511C129.342 90.172 129.263 89.9363 129.104 89.7429C128.945 89.5456 128.694 89.4467 128.351 89.4467C128.063 89.4467 127.812 89.5176 127.597 89.6594L127.443 90.5478H125.852L125.82 88.6099C126.215 88.4335 126.627 88.2813 127.056 88.1528C127.49 88.0237 127.973 87.9594 128.505 87.9594C129.454 87.9594 130.207 88.1781 130.765 88.616C131.323 89.0495 131.602 89.6698 131.602 90.4769V93.0462C131.602 93.1445 131.602 93.2412 131.602 93.3357C131.607 93.4302 131.617 93.5204 131.635 93.6061L132.388 93.7352V95.055H129.748C129.692 94.9775 129.632 94.8748 129.568 94.7462C129.503 94.6171 129.458 94.4885 129.433 94.3594C129.222 94.6215 128.986 94.8253 128.724 94.9715C128.462 95.1171 128.13 95.1901 127.726 95.1901ZM128.422 93.5934C128.585 93.5934 128.748 93.561 128.911 93.4967C129.078 93.428 129.222 93.327 129.342 93.194V92.1896H128.64C128.336 92.1896 128.1 92.2561 127.932 92.389C127.769 92.5226 127.687 92.6984 127.687 92.9171C127.687 93.1275 127.756 93.2929 127.894 93.4132C128.031 93.533 128.207 93.5934 128.422 93.5934ZM132.748 95.055V93.7352L133.573 93.5292V89.6204L132.594 89.4143V88.0879H135.691L135.762 89.0154C135.989 88.6802 136.266 88.4209 136.592 88.2363C136.919 88.0517 137.296 87.9594 137.725 87.9594C138.159 87.9594 138.53 88.0539 138.84 88.2429C139.153 88.4275 139.389 88.7105 139.548 89.0923C139.758 88.7319 140.029 88.4528 140.359 88.2555C140.694 88.0583 141.087 87.9594 141.537 87.9594C142.212 87.9594 142.741 88.1868 143.128 88.6418C143.514 89.0967 143.707 89.7967 143.707 90.7407V93.5292L144.531 93.7352V95.055H140.791V93.7352L141.454 93.5292V90.7407C141.454 90.333 141.389 90.0561 141.261 89.9105C141.136 89.7643 140.953 89.6912 140.713 89.6912C140.323 89.6912 140.005 89.8374 139.761 90.1291V93.5292L140.34 93.7352V95.055H136.934V93.7352L137.513 93.5292V90.7407C137.513 90.333 137.451 90.0561 137.326 89.9105C137.202 89.7643 137.016 89.6912 136.766 89.6912C136.38 89.6912 136.064 89.8396 135.82 90.1357V93.5292L136.483 93.7352V95.055H132.748ZM144.905 95.055V93.7352L145.723 93.5292V89.6204L144.751 89.4143V88.0879H147.983V93.5292L148.794 93.7352V95.055H144.905ZM145.658 86.7682V85.0105H147.983V86.7682H145.658ZM149.155 95.055V93.7352L149.966 93.5292V89.6204L149 89.4143V88.0879H152.103L152.181 89.0605C152.413 88.7127 152.696 88.4423 153.031 88.2489C153.37 88.0561 153.754 87.9594 154.184 87.9594C154.836 87.9594 155.351 88.1802 155.729 88.6226C156.107 89.0649 156.295 89.7665 156.295 90.728V93.5292L157.107 93.7352V95.055H153.372V93.7352L154.029 93.5292V90.7215C154.029 90.3484 153.954 90.0841 153.803 89.9297C153.653 89.7709 153.439 89.6912 153.159 89.6912C152.765 89.6912 152.453 89.8418 152.226 90.1423V93.5292L152.806 93.7352V95.055H149.155ZM160.931 95.1901C160.214 95.1901 159.601 95.0423 159.09 94.7462C158.583 94.4456 158.195 94.0291 157.924 93.4967C157.658 92.9605 157.525 92.3401 157.525 91.6357V91.5072C157.525 90.8116 157.658 90.1978 157.924 89.6654C158.195 89.1335 158.583 88.7171 159.09 88.4165C159.596 88.1116 160.206 87.9594 160.918 87.9594C161.635 87.9594 162.245 88.1094 162.747 88.4099C163.253 88.7105 163.64 89.1269 163.906 89.6594C164.176 90.1912 164.312 90.8077 164.312 91.5072V91.6357C164.312 92.3357 164.176 92.9539 163.906 93.4901C163.64 94.0226 163.253 94.439 162.747 94.7396C162.245 95.0401 161.64 95.1901 160.931 95.1901ZM160.931 93.4709C161.344 93.4709 161.635 93.3077 161.807 92.9819C161.979 92.6511 162.064 92.2028 162.064 91.6357V91.5072C162.064 90.9577 161.976 90.5176 161.801 90.1874C161.629 89.8522 161.335 89.6852 160.918 89.6852C160.502 89.6852 160.208 89.8522 160.036 90.1874C159.869 90.5176 159.785 90.9577 159.785 91.5072V91.6357C159.785 92.2066 159.869 92.6555 160.036 92.9819C160.208 93.3077 160.506 93.4709 160.931 93.4709ZM170.647 95.1901C169.974 95.1901 169.424 94.9989 168.999 94.6171C168.574 94.2352 168.362 93.7264 168.362 93.0912C168.362 92.4385 168.624 91.9044 169.147 91.4879C169.675 91.0715 170.472 90.8632 171.536 90.8632H172.264V90.4511C172.264 90.172 172.184 89.9363 172.025 89.7429C171.867 89.5456 171.616 89.4467 171.272 89.4467C170.985 89.4467 170.734 89.5176 170.519 89.6594L170.364 90.5478H168.774L168.742 88.6099C169.136 88.4335 169.548 88.2813 169.978 88.1528C170.412 88.0237 170.895 87.9594 171.427 87.9594C172.375 87.9594 173.129 88.1781 173.687 88.616C174.245 89.0495 174.524 89.6698 174.524 90.4769V93.0462C174.524 93.1445 174.524 93.2412 174.524 93.3357C174.528 93.4302 174.539 93.5204 174.556 93.6061L175.309 93.7352V95.055H172.669C172.614 94.9775 172.553 94.8748 172.489 94.7462C172.425 94.6171 172.38 94.4885 172.354 94.3594C172.144 94.6215 171.907 94.8253 171.646 94.9715C171.384 95.1171 171.051 95.1901 170.647 95.1901ZM171.343 93.5934C171.506 93.5934 171.669 93.561 171.833 93.4967C172 93.428 172.144 93.327 172.264 93.194V92.1896H171.562C171.257 92.1896 171.021 92.2561 170.853 92.389C170.691 92.5226 170.609 92.6984 170.609 92.9171C170.609 93.1275 170.678 93.2929 170.815 93.4132C170.952 93.533 171.128 93.5934 171.343 93.5934ZM175.657 95.055V93.7352L176.481 93.5292V86.5429L175.502 86.3368V85.0105H178.741V93.5292L179.559 93.7352V95.055H175.657ZM183.39 95.055V93.7352L184.208 93.5292V89.6462H183.203V88.0879H184.208V87.3863C184.208 86.5791 184.451 85.9588 184.935 85.5253C185.425 85.0918 186.107 84.8753 186.983 84.8753C187.215 84.8753 187.459 84.8945 187.717 84.933C187.975 84.9676 188.177 85.0061 188.322 85.0489L188.155 86.7165C187.902 86.6478 187.633 86.6138 187.35 86.6138C186.762 86.6138 186.468 86.8709 186.468 87.3863V88.0879H188.084V89.6462H186.468V93.5292L187.717 93.7352V95.055H183.39ZM191.535 95.1901C190.814 95.1901 190.247 94.9627 189.835 94.5077C189.423 94.0528 189.217 93.3489 189.217 92.3956V89.6204L188.47 89.4143V88.0879H191.478V92.4088C191.478 93.1083 191.765 93.4583 192.34 93.4583C192.508 93.4583 192.673 93.428 192.836 93.3682C193.003 93.3033 193.151 93.2094 193.28 93.0846V89.6204L192.52 89.4143V88.0879H195.54V93.5292L196.409 93.7352V95.055H193.577L193.428 94.2632C192.965 94.8813 192.334 95.1901 191.535 95.1901ZM199.893 95.2033C199.163 95.2033 198.607 95.0099 198.225 94.6237C197.847 94.233 197.659 93.6171 197.659 92.7759V89.6462H196.79V88.0879H197.659V86.3687H199.906V88.0879H201.046V89.6462H199.906V92.7693C199.906 92.9967 199.957 93.1555 200.061 93.2456C200.163 93.3357 200.305 93.3808 200.485 93.3808C200.563 93.3808 200.64 93.3764 200.717 93.3682C200.795 93.3594 200.872 93.3489 200.949 93.3357L201.103 95.0226C200.696 95.1429 200.292 95.2033 199.893 95.2033ZM204.619 95.1901C203.898 95.1901 203.331 94.9627 202.919 94.5077C202.507 94.0528 202.301 93.3489 202.301 92.3956V89.6204L201.554 89.4143V88.0879H204.561V92.4088C204.561 93.1083 204.849 93.4583 205.424 93.4583C205.591 93.4583 205.757 93.428 205.92 93.3682C206.087 93.3033 206.235 93.2094 206.364 93.0846V89.6204L205.605 89.4143V88.0879H208.624V93.5292L209.494 93.7352V95.055H206.66L206.512 94.2632C206.048 94.8813 205.418 95.1901 204.619 95.1901ZM210.305 95.055V93.7352L211.116 93.5292V89.6204L210.15 89.4143V88.0879H213.247L213.298 88.9379L213.312 89.1121C213.612 88.3434 214.091 87.9594 214.747 87.9594C214.842 87.9594 214.953 87.9682 215.083 87.9852C215.211 87.9978 215.342 88.0237 215.475 88.0621L215.25 90.1357L214.284 90.0907C214.061 90.0819 213.885 90.1077 213.756 90.1676C213.631 90.2237 213.505 90.3182 213.376 90.4511V93.5292L214.187 93.7352V95.055H210.305ZM219.203 95.1901C218.486 95.1901 217.873 95.0423 217.362 94.7462C216.855 94.4456 216.467 94.0291 216.196 93.4967C215.93 92.9605 215.797 92.3401 215.797 91.6357V91.5072C215.797 90.8116 215.93 90.1978 216.196 89.6654C216.467 89.1335 216.855 88.7171 217.362 88.4165C217.868 88.1116 218.478 87.9594 219.19 87.9594C219.907 87.9594 220.517 88.1094 221.019 88.4099C221.525 88.7105 221.912 89.1269 222.178 89.6594C222.448 90.1912 222.584 90.8077 222.584 91.5072V91.6357C222.584 92.3357 222.448 92.9539 222.178 93.4901C221.912 94.0226 221.525 94.439 221.019 94.7396C220.517 95.0401 219.912 95.1901 219.203 95.1901ZM219.203 93.4709C219.616 93.4709 219.907 93.3077 220.079 92.9819C220.251 92.6511 220.336 92.2028 220.336 91.6357V91.5072C220.336 90.9577 220.248 90.5176 220.073 90.1874C219.901 89.8522 219.607 89.6852 219.19 89.6852C218.774 89.6852 218.48 89.8522 218.308 90.1874C218.141 90.5176 218.057 90.9577 218.057 91.5072V91.6357C218.057 92.2066 218.141 92.6555 218.308 92.9819C218.48 93.3077 218.778 93.4709 219.203 93.4709Z" fill="white"/>
</g>
</g>
<defs>
<filter id="filter0_i_1011_52" x="98.4165" y="12.2982" width="197.016" height="56.104" filterUnits="userSpaceOnUse" color-interpolation-filters="sRGB">
<feFlood flood-opacity="0" result="BackgroundImageFix"/>
<feBlend mode="normal" in="SourceGraphic" in2="BackgroundImageFix" result="shape"/>
<feColorMatrix in="SourceAlpha" type="matrix" values="0 0 0 0 0 0 0 0 0 0 0 0 0 0 0 0 0 0 127 0" result="hardAlpha"/>
<feOffset dy="2.1978"/>
<feGaussianBlur stdDeviation="1.0989"/>
<feComposite in2="hardAlpha" operator="arithmetic" k2="-1" k3="1"/>
<feColorMatrix type="matrix" values="0 0 0 0 0 0 0 0 0 0 0 0 0 0 0 0 0 0 0.25 0"/>
<feBlend mode="normal" in2="shape" result="effect1_innerShadow_1011_52"/>
</filter>
<filter id="filter1_i_1011_52" x="97.9913" y="84.8753" width="124.592" height="12.5258" filterUnits="userSpaceOnUse" color-interpolation-filters="sRGB">
<feFlood flood-opacity="0" result="BackgroundImageFix"/>
<feBlend mode="normal" in="SourceGraphic" in2="BackgroundImageFix" result="shape"/>
<feColorMatrix in="SourceAlpha" type="matrix" values="0 0 0 0 0 0 0 0 0 0 0 0 0 0 0 0 0 0 127 0" result="hardAlpha"/>
<feOffset dy="2.1978"/>
<feGaussianBlur stdDeviation="1.0989"/>
<feComposite in2="hardAlpha" operator="arithmetic" k2="-1" k3="1"/>
<feColorMatrix type="matrix" values="0 0 0 0 0 0 0 0 0 0 0 0 0 0 0 0 0 0 0.25 0"/>
<feBlend mode="normal" in2="shape" result="effect1_innerShadow_1011_52"/>
</filter>
<clipPath id="clip0_1011_52">
<rect width="298.352" height="100" fill="white" transform="translate(0.648315)"/>
</clipPath>
</defs>
</svg>
